<mxfile host="app.diagrams.net" agent="Mozilla/5.0 (Windows NT 10.0; Win64; x64) AppleWebKit/537.36 (KHTML, like Gecko) Chrome/137.0.0.0 Safari/537.36" version="27.0.9">
  <diagram name="Page-1" id="JvkSAolZhgui7Sr7nKqG">
    <mxGraphModel dx="1553" dy="2643" grid="1" gridSize="10" guides="1" tooltips="1" connect="1" arrows="1" fold="1" page="1" pageScale="1" pageWidth="850" pageHeight="1100" math="0" shadow="0">
      <root>
        <mxCell id="0" />
        <mxCell id="1" parent="0" />
        <mxCell id="GHzsCkxiBa72Dn1Be5wE-11" style="edgeStyle=orthogonalEdgeStyle;rounded=0;orthogonalLoop=1;jettySize=auto;html=1;entryX=0.5;entryY=0;entryDx=0;entryDy=0;" parent="1" source="GHzsCkxiBa72Dn1Be5wE-1" target="GHzsCkxiBa72Dn1Be5wE-10" edge="1">
          <mxGeometry relative="1" as="geometry" />
        </mxCell>
        <mxCell id="GHzsCkxiBa72Dn1Be5wE-1" value="Mulai" style="ellipse;whiteSpace=wrap;html=1;" parent="1" vertex="1">
          <mxGeometry x="190" y="330" width="120" height="80" as="geometry" />
        </mxCell>
        <mxCell id="GHzsCkxiBa72Dn1Be5wE-22" style="edgeStyle=orthogonalEdgeStyle;rounded=0;orthogonalLoop=1;jettySize=auto;html=1;" parent="1" source="GHzsCkxiBa72Dn1Be5wE-7" target="GHzsCkxiBa72Dn1Be5wE-21" edge="1">
          <mxGeometry relative="1" as="geometry">
            <Array as="points">
              <mxPoint x="100" y="830" />
              <mxPoint x="250" y="830" />
            </Array>
          </mxGeometry>
        </mxCell>
        <mxCell id="GHzsCkxiBa72Dn1Be5wE-7" value="Handle duplicate" style="rounded=0;whiteSpace=wrap;html=1;" parent="1" vertex="1">
          <mxGeometry x="40" y="741" width="120" height="60" as="geometry" />
        </mxCell>
        <mxCell id="GHzsCkxiBa72Dn1Be5wE-17" style="edgeStyle=orthogonalEdgeStyle;rounded=0;orthogonalLoop=1;jettySize=auto;html=1;entryX=0.5;entryY=0;entryDx=0;entryDy=0;" parent="1" source="GHzsCkxiBa72Dn1Be5wE-8" target="GHzsCkxiBa72Dn1Be5wE-7" edge="1">
          <mxGeometry relative="1" as="geometry">
            <Array as="points">
              <mxPoint x="250" y="720" />
              <mxPoint x="100" y="720" />
            </Array>
          </mxGeometry>
        </mxCell>
        <mxCell id="GHzsCkxiBa72Dn1Be5wE-20" style="edgeStyle=orthogonalEdgeStyle;rounded=0;orthogonalLoop=1;jettySize=auto;html=1;entryX=0.5;entryY=0;entryDx=0;entryDy=0;" parent="1" source="GHzsCkxiBa72Dn1Be5wE-8" target="GHzsCkxiBa72Dn1Be5wE-16" edge="1">
          <mxGeometry relative="1" as="geometry">
            <Array as="points">
              <mxPoint x="250" y="720" />
              <mxPoint x="400" y="720" />
            </Array>
          </mxGeometry>
        </mxCell>
        <mxCell id="GHzsCkxiBa72Dn1Be5wE-149" style="edgeStyle=orthogonalEdgeStyle;rounded=0;orthogonalLoop=1;jettySize=auto;html=1;" parent="1" source="GHzsCkxiBa72Dn1Be5wE-8" target="GHzsCkxiBa72Dn1Be5wE-148" edge="1">
          <mxGeometry relative="1" as="geometry" />
        </mxCell>
        <mxCell id="GHzsCkxiBa72Dn1Be5wE-8" value="Data Cleaning" style="rounded=1;whiteSpace=wrap;html=1;" parent="1" vertex="1">
          <mxGeometry x="190" y="640" width="120" height="60" as="geometry" />
        </mxCell>
        <mxCell id="GHzsCkxiBa72Dn1Be5wE-13" style="edgeStyle=orthogonalEdgeStyle;rounded=0;orthogonalLoop=1;jettySize=auto;html=1;entryX=0.5;entryY=0;entryDx=0;entryDy=0;" parent="1" source="GHzsCkxiBa72Dn1Be5wE-10" target="GHzsCkxiBa72Dn1Be5wE-12" edge="1">
          <mxGeometry relative="1" as="geometry" />
        </mxCell>
        <mxCell id="GHzsCkxiBa72Dn1Be5wE-10" value="Data Collection" style="rounded=1;whiteSpace=wrap;html=1;" parent="1" vertex="1">
          <mxGeometry x="190" y="450" width="120" height="60" as="geometry" />
        </mxCell>
        <mxCell id="GHzsCkxiBa72Dn1Be5wE-14" style="edgeStyle=orthogonalEdgeStyle;rounded=0;orthogonalLoop=1;jettySize=auto;html=1;" parent="1" source="GHzsCkxiBa72Dn1Be5wE-12" target="GHzsCkxiBa72Dn1Be5wE-8" edge="1">
          <mxGeometry relative="1" as="geometry" />
        </mxCell>
        <mxCell id="GHzsCkxiBa72Dn1Be5wE-12" value="Memilih dataset target tertentu" style="rounded=0;whiteSpace=wrap;html=1;" parent="1" vertex="1">
          <mxGeometry x="190" y="540" width="120" height="60" as="geometry" />
        </mxCell>
        <mxCell id="GHzsCkxiBa72Dn1Be5wE-24" style="edgeStyle=orthogonalEdgeStyle;rounded=0;orthogonalLoop=1;jettySize=auto;html=1;entryX=0.5;entryY=0;entryDx=0;entryDy=0;" parent="1" source="GHzsCkxiBa72Dn1Be5wE-16" target="GHzsCkxiBa72Dn1Be5wE-21" edge="1">
          <mxGeometry relative="1" as="geometry">
            <mxPoint x="250" y="850" as="targetPoint" />
            <Array as="points">
              <mxPoint x="400" y="830" />
              <mxPoint x="251" y="830" />
              <mxPoint x="251" y="850" />
              <mxPoint x="250" y="850" />
            </Array>
          </mxGeometry>
        </mxCell>
        <mxCell id="GHzsCkxiBa72Dn1Be5wE-16" value="Handle invalid lama rawat" style="rounded=0;whiteSpace=wrap;html=1;" parent="1" vertex="1">
          <mxGeometry x="340" y="741" width="120" height="60" as="geometry" />
        </mxCell>
        <mxCell id="GHzsCkxiBa72Dn1Be5wE-28" style="edgeStyle=orthogonalEdgeStyle;rounded=0;orthogonalLoop=1;jettySize=auto;html=1;" parent="1" source="GHzsCkxiBa72Dn1Be5wE-21" target="GHzsCkxiBa72Dn1Be5wE-27" edge="1">
          <mxGeometry relative="1" as="geometry" />
        </mxCell>
        <mxCell id="GHzsCkxiBa72Dn1Be5wE-21" value="Category normalization target" style="rounded=0;whiteSpace=wrap;html=1;" parent="1" vertex="1">
          <mxGeometry x="190" y="860" width="120" height="60" as="geometry" />
        </mxCell>
        <mxCell id="GHzsCkxiBa72Dn1Be5wE-43" style="edgeStyle=orthogonalEdgeStyle;rounded=0;orthogonalLoop=1;jettySize=auto;html=1;entryX=0.5;entryY=0;entryDx=0;entryDy=0;" parent="1" source="GHzsCkxiBa72Dn1Be5wE-27" target="GHzsCkxiBa72Dn1Be5wE-31" edge="1">
          <mxGeometry relative="1" as="geometry" />
        </mxCell>
        <mxCell id="GHzsCkxiBa72Dn1Be5wE-44" style="edgeStyle=orthogonalEdgeStyle;rounded=0;orthogonalLoop=1;jettySize=auto;html=1;entryX=0.5;entryY=0;entryDx=0;entryDy=0;" parent="1" source="GHzsCkxiBa72Dn1Be5wE-27" target="GHzsCkxiBa72Dn1Be5wE-29" edge="1">
          <mxGeometry relative="1" as="geometry" />
        </mxCell>
        <mxCell id="GHzsCkxiBa72Dn1Be5wE-27" value="Data Transformation" style="rounded=1;whiteSpace=wrap;html=1;" parent="1" vertex="1">
          <mxGeometry x="190" y="970" width="120" height="60" as="geometry" />
        </mxCell>
        <mxCell id="GHzsCkxiBa72Dn1Be5wE-46" style="edgeStyle=orthogonalEdgeStyle;rounded=0;orthogonalLoop=1;jettySize=auto;html=1;" parent="1" source="GHzsCkxiBa72Dn1Be5wE-29" edge="1">
          <mxGeometry relative="1" as="geometry">
            <mxPoint x="250" y="1190" as="targetPoint" />
            <Array as="points">
              <mxPoint x="365" y="1160" />
              <mxPoint x="250" y="1160" />
            </Array>
          </mxGeometry>
        </mxCell>
        <mxCell id="GHzsCkxiBa72Dn1Be5wE-29" value="Encoding non numerik" style="rounded=0;whiteSpace=wrap;html=1;" parent="1" vertex="1">
          <mxGeometry x="305" y="1080" width="120" height="60" as="geometry" />
        </mxCell>
        <mxCell id="GHzsCkxiBa72Dn1Be5wE-45" style="edgeStyle=orthogonalEdgeStyle;rounded=0;orthogonalLoop=1;jettySize=auto;html=1;entryX=0.5;entryY=0;entryDx=0;entryDy=0;" parent="1" source="GHzsCkxiBa72Dn1Be5wE-31" target="GHzsCkxiBa72Dn1Be5wE-34" edge="1">
          <mxGeometry relative="1" as="geometry">
            <Array as="points">
              <mxPoint x="130" y="1160" />
              <mxPoint x="250" y="1160" />
            </Array>
          </mxGeometry>
        </mxCell>
        <mxCell id="GHzsCkxiBa72Dn1Be5wE-31" value="Standard Scaler lama rawat" style="rounded=0;whiteSpace=wrap;html=1;" parent="1" vertex="1">
          <mxGeometry x="70" y="1080" width="120" height="60" as="geometry" />
        </mxCell>
        <mxCell id="GHzsCkxiBa72Dn1Be5wE-47" style="edgeStyle=orthogonalEdgeStyle;rounded=0;orthogonalLoop=1;jettySize=auto;html=1;" parent="1" source="GHzsCkxiBa72Dn1Be5wE-34" target="GHzsCkxiBa72Dn1Be5wE-37" edge="1">
          <mxGeometry relative="1" as="geometry" />
        </mxCell>
        <mxCell id="GHzsCkxiBa72Dn1Be5wE-34" value="Clustering Kategorikal Target" style="rounded=0;whiteSpace=wrap;html=1;" parent="1" vertex="1">
          <mxGeometry x="190" y="1190" width="120" height="60" as="geometry" />
        </mxCell>
        <mxCell id="GHzsCkxiBa72Dn1Be5wE-40" style="edgeStyle=orthogonalEdgeStyle;rounded=0;orthogonalLoop=1;jettySize=auto;html=1;entryX=0.5;entryY=0;entryDx=0;entryDy=0;" parent="1" source="GHzsCkxiBa72Dn1Be5wE-37" target="GHzsCkxiBa72Dn1Be5wE-39" edge="1">
          <mxGeometry relative="1" as="geometry" />
        </mxCell>
        <mxCell id="GHzsCkxiBa72Dn1Be5wE-37" value="Data Reduction" style="rounded=1;whiteSpace=wrap;html=1;" parent="1" vertex="1">
          <mxGeometry x="190" y="1290" width="120" height="60" as="geometry" />
        </mxCell>
        <mxCell id="GHzsCkxiBa72Dn1Be5wE-42" style="edgeStyle=orthogonalEdgeStyle;rounded=0;orthogonalLoop=1;jettySize=auto;html=1;" parent="1" source="GHzsCkxiBa72Dn1Be5wE-39" target="GHzsCkxiBa72Dn1Be5wE-41" edge="1">
          <mxGeometry relative="1" as="geometry" />
        </mxCell>
        <mxCell id="GHzsCkxiBa72Dn1Be5wE-39" value="Sampling Data&amp;nbsp;&lt;br&gt;Min &amp;gt;50 appear kategori" style="rounded=0;whiteSpace=wrap;html=1;" parent="1" vertex="1">
          <mxGeometry x="190" y="1400" width="120" height="60" as="geometry" />
        </mxCell>
        <mxCell id="GHzsCkxiBa72Dn1Be5wE-49" style="edgeStyle=orthogonalEdgeStyle;rounded=0;orthogonalLoop=1;jettySize=auto;html=1;entryX=0.5;entryY=0;entryDx=0;entryDy=0;" parent="1" source="GHzsCkxiBa72Dn1Be5wE-41" target="GHzsCkxiBa72Dn1Be5wE-48" edge="1">
          <mxGeometry relative="1" as="geometry">
            <Array as="points">
              <mxPoint x="250" y="1580" />
              <mxPoint x="90" y="1580" />
            </Array>
          </mxGeometry>
        </mxCell>
        <mxCell id="GHzsCkxiBa72Dn1Be5wE-52" style="edgeStyle=orthogonalEdgeStyle;rounded=0;orthogonalLoop=1;jettySize=auto;html=1;entryX=0.5;entryY=0;entryDx=0;entryDy=0;" parent="1" source="GHzsCkxiBa72Dn1Be5wE-41" target="GHzsCkxiBa72Dn1Be5wE-50" edge="1">
          <mxGeometry relative="1" as="geometry" />
        </mxCell>
        <mxCell id="GHzsCkxiBa72Dn1Be5wE-142" style="edgeStyle=orthogonalEdgeStyle;rounded=0;orthogonalLoop=1;jettySize=auto;html=1;entryX=0.5;entryY=0;entryDx=0;entryDy=0;" parent="1" source="GHzsCkxiBa72Dn1Be5wE-41" target="GHzsCkxiBa72Dn1Be5wE-141" edge="1">
          <mxGeometry relative="1" as="geometry">
            <Array as="points">
              <mxPoint x="250" y="1580" />
              <mxPoint x="560" y="1580" />
            </Array>
          </mxGeometry>
        </mxCell>
        <mxCell id="GHzsCkxiBa72Dn1Be5wE-41" value="Data Spliting" style="rounded=1;whiteSpace=wrap;html=1;" parent="1" vertex="1">
          <mxGeometry x="190" y="1500" width="120" height="60" as="geometry" />
        </mxCell>
        <mxCell id="GHzsCkxiBa72Dn1Be5wE-48" value="Split Target dan Feature" style="rounded=0;whiteSpace=wrap;html=1;" parent="1" vertex="1">
          <mxGeometry x="30" y="1611" width="120" height="60" as="geometry" />
        </mxCell>
        <mxCell id="GHzsCkxiBa72Dn1Be5wE-55" style="edgeStyle=orthogonalEdgeStyle;rounded=0;orthogonalLoop=1;jettySize=auto;html=1;entryX=0.5;entryY=0;entryDx=0;entryDy=0;" parent="1" source="GHzsCkxiBa72Dn1Be5wE-50" target="GHzsCkxiBa72Dn1Be5wE-54" edge="1">
          <mxGeometry relative="1" as="geometry">
            <Array as="points">
              <mxPoint x="250" y="1690" />
              <mxPoint x="340" y="1690" />
            </Array>
          </mxGeometry>
        </mxCell>
        <mxCell id="GHzsCkxiBa72Dn1Be5wE-50" value="validation data" style="rounded=0;whiteSpace=wrap;html=1;" parent="1" vertex="1">
          <mxGeometry x="190" y="1610" width="120" height="60" as="geometry" />
        </mxCell>
        <mxCell id="GHzsCkxiBa72Dn1Be5wE-144" style="edgeStyle=orthogonalEdgeStyle;rounded=0;orthogonalLoop=1;jettySize=auto;html=1;entryX=0.5;entryY=0;entryDx=0;entryDy=0;" parent="1" source="GHzsCkxiBa72Dn1Be5wE-51" target="GHzsCkxiBa72Dn1Be5wE-54" edge="1">
          <mxGeometry relative="1" as="geometry">
            <Array as="points">
              <mxPoint x="410" y="1690" />
              <mxPoint x="340" y="1690" />
            </Array>
          </mxGeometry>
        </mxCell>
        <mxCell id="GHzsCkxiBa72Dn1Be5wE-51" value="Testing data" style="rounded=0;whiteSpace=wrap;html=1;" parent="1" vertex="1">
          <mxGeometry x="350" y="1610" width="120" height="60" as="geometry" />
        </mxCell>
        <mxCell id="GHzsCkxiBa72Dn1Be5wE-53" style="edgeStyle=orthogonalEdgeStyle;rounded=0;orthogonalLoop=1;jettySize=auto;html=1;entryX=0.5;entryY=0;entryDx=0;entryDy=0;" parent="1" source="GHzsCkxiBa72Dn1Be5wE-41" target="GHzsCkxiBa72Dn1Be5wE-51" edge="1">
          <mxGeometry relative="1" as="geometry">
            <Array as="points">
              <mxPoint x="250" y="1580" />
              <mxPoint x="410" y="1580" />
            </Array>
          </mxGeometry>
        </mxCell>
        <mxCell id="GHzsCkxiBa72Dn1Be5wE-147" style="edgeStyle=orthogonalEdgeStyle;rounded=0;orthogonalLoop=1;jettySize=auto;html=1;entryX=0.5;entryY=0;entryDx=0;entryDy=0;" parent="1" source="GHzsCkxiBa72Dn1Be5wE-54" target="GHzsCkxiBa72Dn1Be5wE-146" edge="1">
          <mxGeometry relative="1" as="geometry" />
        </mxCell>
        <mxCell id="GHzsCkxiBa72Dn1Be5wE-54" value="Training Model" style="rounded=1;whiteSpace=wrap;html=1;" parent="1" vertex="1">
          <mxGeometry x="280" y="1720" width="120" height="60" as="geometry" />
        </mxCell>
        <mxCell id="GHzsCkxiBa72Dn1Be5wE-143" style="edgeStyle=orthogonalEdgeStyle;rounded=0;orthogonalLoop=1;jettySize=auto;html=1;entryX=0.5;entryY=0;entryDx=0;entryDy=0;" parent="1" source="GHzsCkxiBa72Dn1Be5wE-141" target="GHzsCkxiBa72Dn1Be5wE-54" edge="1">
          <mxGeometry relative="1" as="geometry">
            <Array as="points">
              <mxPoint x="560" y="1690" />
              <mxPoint x="340" y="1690" />
            </Array>
          </mxGeometry>
        </mxCell>
        <mxCell id="GHzsCkxiBa72Dn1Be5wE-141" value="Testing data" style="rounded=0;whiteSpace=wrap;html=1;" parent="1" vertex="1">
          <mxGeometry x="500" y="1610" width="120" height="60" as="geometry" />
        </mxCell>
        <mxCell id="GHzsCkxiBa72Dn1Be5wE-146" value="Selesai" style="ellipse;whiteSpace=wrap;html=1;" parent="1" vertex="1">
          <mxGeometry x="280" y="1820" width="120" height="80" as="geometry" />
        </mxCell>
        <mxCell id="GHzsCkxiBa72Dn1Be5wE-150" style="edgeStyle=orthogonalEdgeStyle;rounded=0;orthogonalLoop=1;jettySize=auto;html=1;entryX=0.5;entryY=0;entryDx=0;entryDy=0;" parent="1" source="GHzsCkxiBa72Dn1Be5wE-148" target="GHzsCkxiBa72Dn1Be5wE-21" edge="1">
          <mxGeometry relative="1" as="geometry" />
        </mxCell>
        <mxCell id="GHzsCkxiBa72Dn1Be5wE-148" value="Handle unrelevan data" style="rounded=0;whiteSpace=wrap;html=1;" parent="1" vertex="1">
          <mxGeometry x="190" y="741" width="120" height="60" as="geometry" />
        </mxCell>
        <mxCell id="6pIU_dXwWz2zI7MfIqAC-4" style="edgeStyle=orthogonalEdgeStyle;rounded=0;orthogonalLoop=1;jettySize=auto;html=1;entryX=0.5;entryY=0;entryDx=0;entryDy=0;" edge="1" source="6pIU_dXwWz2zI7MfIqAC-5" target="6pIU_dXwWz2zI7MfIqAC-13" parent="1">
          <mxGeometry relative="1" as="geometry" />
        </mxCell>
        <mxCell id="6pIU_dXwWz2zI7MfIqAC-5" value="Mulai" style="ellipse;whiteSpace=wrap;html=1;" vertex="1" parent="1">
          <mxGeometry x="1052" y="360" width="120" height="80" as="geometry" />
        </mxCell>
        <mxCell id="6pIU_dXwWz2zI7MfIqAC-6" style="edgeStyle=orthogonalEdgeStyle;rounded=0;orthogonalLoop=1;jettySize=auto;html=1;" edge="1" source="6pIU_dXwWz2zI7MfIqAC-7" target="6pIU_dXwWz2zI7MfIqAC-19" parent="1">
          <mxGeometry relative="1" as="geometry">
            <Array as="points">
              <mxPoint x="962" y="860" />
              <mxPoint x="1112" y="860" />
            </Array>
          </mxGeometry>
        </mxCell>
        <mxCell id="6pIU_dXwWz2zI7MfIqAC-7" value="Handle duplicate" style="rounded=0;whiteSpace=wrap;html=1;" vertex="1" parent="1">
          <mxGeometry x="902" y="771" width="120" height="60" as="geometry" />
        </mxCell>
        <mxCell id="6pIU_dXwWz2zI7MfIqAC-8" style="edgeStyle=orthogonalEdgeStyle;rounded=0;orthogonalLoop=1;jettySize=auto;html=1;entryX=0.5;entryY=0;entryDx=0;entryDy=0;" edge="1" source="6pIU_dXwWz2zI7MfIqAC-11" target="6pIU_dXwWz2zI7MfIqAC-7" parent="1">
          <mxGeometry relative="1" as="geometry">
            <Array as="points">
              <mxPoint x="1112" y="750" />
              <mxPoint x="962" y="750" />
            </Array>
          </mxGeometry>
        </mxCell>
        <mxCell id="6pIU_dXwWz2zI7MfIqAC-9" style="edgeStyle=orthogonalEdgeStyle;rounded=0;orthogonalLoop=1;jettySize=auto;html=1;entryX=0.5;entryY=0;entryDx=0;entryDy=0;" edge="1" source="6pIU_dXwWz2zI7MfIqAC-11" target="6pIU_dXwWz2zI7MfIqAC-17" parent="1">
          <mxGeometry relative="1" as="geometry">
            <Array as="points">
              <mxPoint x="1112" y="750" />
              <mxPoint x="1262" y="750" />
            </Array>
          </mxGeometry>
        </mxCell>
        <mxCell id="6pIU_dXwWz2zI7MfIqAC-10" style="edgeStyle=orthogonalEdgeStyle;rounded=0;orthogonalLoop=1;jettySize=auto;html=1;" edge="1" source="6pIU_dXwWz2zI7MfIqAC-11" target="6pIU_dXwWz2zI7MfIqAC-49" parent="1">
          <mxGeometry relative="1" as="geometry" />
        </mxCell>
        <mxCell id="6pIU_dXwWz2zI7MfIqAC-11" value="Data Cleaning" style="rounded=1;whiteSpace=wrap;html=1;" vertex="1" parent="1">
          <mxGeometry x="1052" y="670" width="120" height="60" as="geometry" />
        </mxCell>
        <mxCell id="6pIU_dXwWz2zI7MfIqAC-12" style="edgeStyle=orthogonalEdgeStyle;rounded=0;orthogonalLoop=1;jettySize=auto;html=1;entryX=0.5;entryY=0;entryDx=0;entryDy=0;" edge="1" source="6pIU_dXwWz2zI7MfIqAC-13" target="6pIU_dXwWz2zI7MfIqAC-15" parent="1">
          <mxGeometry relative="1" as="geometry" />
        </mxCell>
        <mxCell id="6pIU_dXwWz2zI7MfIqAC-13" value="Data Collection" style="rounded=1;whiteSpace=wrap;html=1;" vertex="1" parent="1">
          <mxGeometry x="1052" y="480" width="120" height="60" as="geometry" />
        </mxCell>
        <mxCell id="6pIU_dXwWz2zI7MfIqAC-14" style="edgeStyle=orthogonalEdgeStyle;rounded=0;orthogonalLoop=1;jettySize=auto;html=1;" edge="1" source="6pIU_dXwWz2zI7MfIqAC-15" target="6pIU_dXwWz2zI7MfIqAC-11" parent="1">
          <mxGeometry relative="1" as="geometry" />
        </mxCell>
        <mxCell id="6pIU_dXwWz2zI7MfIqAC-15" value="Memilih dataset target tertentu" style="rounded=0;whiteSpace=wrap;html=1;" vertex="1" parent="1">
          <mxGeometry x="1052" y="570" width="120" height="60" as="geometry" />
        </mxCell>
        <mxCell id="6pIU_dXwWz2zI7MfIqAC-16" style="edgeStyle=orthogonalEdgeStyle;rounded=0;orthogonalLoop=1;jettySize=auto;html=1;entryX=0.5;entryY=0;entryDx=0;entryDy=0;" edge="1" source="6pIU_dXwWz2zI7MfIqAC-17" target="6pIU_dXwWz2zI7MfIqAC-19" parent="1">
          <mxGeometry relative="1" as="geometry">
            <mxPoint x="1112" y="880" as="targetPoint" />
            <Array as="points">
              <mxPoint x="1262" y="860" />
              <mxPoint x="1113" y="860" />
              <mxPoint x="1113" y="880" />
              <mxPoint x="1112" y="880" />
            </Array>
          </mxGeometry>
        </mxCell>
        <mxCell id="6pIU_dXwWz2zI7MfIqAC-17" value="Handle invalid lama rawat" style="rounded=0;whiteSpace=wrap;html=1;" vertex="1" parent="1">
          <mxGeometry x="1202" y="771" width="120" height="60" as="geometry" />
        </mxCell>
        <mxCell id="6pIU_dXwWz2zI7MfIqAC-18" style="edgeStyle=orthogonalEdgeStyle;rounded=0;orthogonalLoop=1;jettySize=auto;html=1;" edge="1" source="6pIU_dXwWz2zI7MfIqAC-19" target="6pIU_dXwWz2zI7MfIqAC-22" parent="1">
          <mxGeometry relative="1" as="geometry" />
        </mxCell>
        <mxCell id="6pIU_dXwWz2zI7MfIqAC-19" value="Category normalization target" style="rounded=0;whiteSpace=wrap;html=1;" vertex="1" parent="1">
          <mxGeometry x="1052" y="890" width="120" height="60" as="geometry" />
        </mxCell>
        <mxCell id="6pIU_dXwWz2zI7MfIqAC-20" style="edgeStyle=orthogonalEdgeStyle;rounded=0;orthogonalLoop=1;jettySize=auto;html=1;entryX=0.5;entryY=0;entryDx=0;entryDy=0;" edge="1" source="6pIU_dXwWz2zI7MfIqAC-22" target="6pIU_dXwWz2zI7MfIqAC-26" parent="1">
          <mxGeometry relative="1" as="geometry" />
        </mxCell>
        <mxCell id="6pIU_dXwWz2zI7MfIqAC-21" style="edgeStyle=orthogonalEdgeStyle;rounded=0;orthogonalLoop=1;jettySize=auto;html=1;entryX=0.5;entryY=0;entryDx=0;entryDy=0;" edge="1" source="6pIU_dXwWz2zI7MfIqAC-22" target="6pIU_dXwWz2zI7MfIqAC-24" parent="1">
          <mxGeometry relative="1" as="geometry" />
        </mxCell>
        <mxCell id="6pIU_dXwWz2zI7MfIqAC-22" value="Data Transformation" style="rounded=1;whiteSpace=wrap;html=1;" vertex="1" parent="1">
          <mxGeometry x="1052" y="1000" width="120" height="60" as="geometry" />
        </mxCell>
        <mxCell id="6pIU_dXwWz2zI7MfIqAC-23" style="edgeStyle=orthogonalEdgeStyle;rounded=0;orthogonalLoop=1;jettySize=auto;html=1;" edge="1" source="6pIU_dXwWz2zI7MfIqAC-24" parent="1">
          <mxGeometry relative="1" as="geometry">
            <mxPoint x="1112" y="1220" as="targetPoint" />
            <Array as="points">
              <mxPoint x="1227" y="1190" />
              <mxPoint x="1112" y="1190" />
            </Array>
          </mxGeometry>
        </mxCell>
        <mxCell id="6pIU_dXwWz2zI7MfIqAC-24" value="Encoding non numerik" style="rounded=0;whiteSpace=wrap;html=1;" vertex="1" parent="1">
          <mxGeometry x="1167" y="1110" width="120" height="60" as="geometry" />
        </mxCell>
        <mxCell id="6pIU_dXwWz2zI7MfIqAC-25" style="edgeStyle=orthogonalEdgeStyle;rounded=0;orthogonalLoop=1;jettySize=auto;html=1;entryX=0.5;entryY=0;entryDx=0;entryDy=0;" edge="1" source="6pIU_dXwWz2zI7MfIqAC-26" target="6pIU_dXwWz2zI7MfIqAC-28" parent="1">
          <mxGeometry relative="1" as="geometry">
            <Array as="points">
              <mxPoint x="992" y="1190" />
              <mxPoint x="1112" y="1190" />
            </Array>
          </mxGeometry>
        </mxCell>
        <mxCell id="6pIU_dXwWz2zI7MfIqAC-26" value="Standard Scaler lama rawat" style="rounded=0;whiteSpace=wrap;html=1;" vertex="1" parent="1">
          <mxGeometry x="932" y="1110" width="120" height="60" as="geometry" />
        </mxCell>
        <mxCell id="6pIU_dXwWz2zI7MfIqAC-27" style="edgeStyle=orthogonalEdgeStyle;rounded=0;orthogonalLoop=1;jettySize=auto;html=1;" edge="1" source="6pIU_dXwWz2zI7MfIqAC-28" target="6pIU_dXwWz2zI7MfIqAC-30" parent="1">
          <mxGeometry relative="1" as="geometry" />
        </mxCell>
        <mxCell id="6pIU_dXwWz2zI7MfIqAC-28" value="Clustering Kategorikal Target" style="rounded=0;whiteSpace=wrap;html=1;" vertex="1" parent="1">
          <mxGeometry x="1052" y="1220" width="120" height="60" as="geometry" />
        </mxCell>
        <mxCell id="6pIU_dXwWz2zI7MfIqAC-29" style="edgeStyle=orthogonalEdgeStyle;rounded=0;orthogonalLoop=1;jettySize=auto;html=1;entryX=0.5;entryY=0;entryDx=0;entryDy=0;" edge="1" source="6pIU_dXwWz2zI7MfIqAC-30" target="6pIU_dXwWz2zI7MfIqAC-32" parent="1">
          <mxGeometry relative="1" as="geometry" />
        </mxCell>
        <mxCell id="6pIU_dXwWz2zI7MfIqAC-30" value="Data Reduction" style="rounded=1;whiteSpace=wrap;html=1;" vertex="1" parent="1">
          <mxGeometry x="1052" y="1320" width="120" height="60" as="geometry" />
        </mxCell>
        <mxCell id="6pIU_dXwWz2zI7MfIqAC-31" style="edgeStyle=orthogonalEdgeStyle;rounded=0;orthogonalLoop=1;jettySize=auto;html=1;" edge="1" source="6pIU_dXwWz2zI7MfIqAC-32" target="6pIU_dXwWz2zI7MfIqAC-36" parent="1">
          <mxGeometry relative="1" as="geometry" />
        </mxCell>
        <mxCell id="6pIU_dXwWz2zI7MfIqAC-32" value="Sampling Data&amp;nbsp;&lt;br&gt;Min &amp;gt;50 appear kategori" style="rounded=0;whiteSpace=wrap;html=1;" vertex="1" parent="1">
          <mxGeometry x="1052" y="1430" width="120" height="60" as="geometry" />
        </mxCell>
        <mxCell id="6pIU_dXwWz2zI7MfIqAC-33" style="edgeStyle=orthogonalEdgeStyle;rounded=0;orthogonalLoop=1;jettySize=auto;html=1;entryX=0.5;entryY=0;entryDx=0;entryDy=0;" edge="1" source="6pIU_dXwWz2zI7MfIqAC-36" target="6pIU_dXwWz2zI7MfIqAC-37" parent="1">
          <mxGeometry relative="1" as="geometry">
            <Array as="points">
              <mxPoint x="1112" y="1610" />
              <mxPoint x="952" y="1610" />
            </Array>
          </mxGeometry>
        </mxCell>
        <mxCell id="6pIU_dXwWz2zI7MfIqAC-34" style="edgeStyle=orthogonalEdgeStyle;rounded=0;orthogonalLoop=1;jettySize=auto;html=1;entryX=0.5;entryY=0;entryDx=0;entryDy=0;" edge="1" source="6pIU_dXwWz2zI7MfIqAC-36" target="6pIU_dXwWz2zI7MfIqAC-39" parent="1">
          <mxGeometry relative="1" as="geometry" />
        </mxCell>
        <mxCell id="6pIU_dXwWz2zI7MfIqAC-35" style="edgeStyle=orthogonalEdgeStyle;rounded=0;orthogonalLoop=1;jettySize=auto;html=1;entryX=0.5;entryY=0;entryDx=0;entryDy=0;" edge="1" source="6pIU_dXwWz2zI7MfIqAC-36" target="6pIU_dXwWz2zI7MfIqAC-46" parent="1">
          <mxGeometry relative="1" as="geometry">
            <Array as="points">
              <mxPoint x="1112" y="1610" />
              <mxPoint x="1422" y="1610" />
            </Array>
          </mxGeometry>
        </mxCell>
        <mxCell id="6pIU_dXwWz2zI7MfIqAC-36" value="Data Spliting" style="rounded=1;whiteSpace=wrap;html=1;" vertex="1" parent="1">
          <mxGeometry x="1052" y="1530" width="120" height="60" as="geometry" />
        </mxCell>
        <mxCell id="6pIU_dXwWz2zI7MfIqAC-37" value="Split Target dan Feature" style="rounded=0;whiteSpace=wrap;html=1;" vertex="1" parent="1">
          <mxGeometry x="892" y="1641" width="120" height="60" as="geometry" />
        </mxCell>
        <mxCell id="6pIU_dXwWz2zI7MfIqAC-38" style="edgeStyle=orthogonalEdgeStyle;rounded=0;orthogonalLoop=1;jettySize=auto;html=1;entryX=0.5;entryY=0;entryDx=0;entryDy=0;" edge="1" source="6pIU_dXwWz2zI7MfIqAC-39" target="6pIU_dXwWz2zI7MfIqAC-44" parent="1">
          <mxGeometry relative="1" as="geometry">
            <Array as="points">
              <mxPoint x="1112" y="1720" />
              <mxPoint x="1202" y="1720" />
            </Array>
          </mxGeometry>
        </mxCell>
        <mxCell id="6pIU_dXwWz2zI7MfIqAC-39" value="validation data" style="rounded=0;whiteSpace=wrap;html=1;" vertex="1" parent="1">
          <mxGeometry x="1052" y="1640" width="120" height="60" as="geometry" />
        </mxCell>
        <mxCell id="6pIU_dXwWz2zI7MfIqAC-40" style="edgeStyle=orthogonalEdgeStyle;rounded=0;orthogonalLoop=1;jettySize=auto;html=1;entryX=0.5;entryY=0;entryDx=0;entryDy=0;" edge="1" source="6pIU_dXwWz2zI7MfIqAC-41" target="6pIU_dXwWz2zI7MfIqAC-44" parent="1">
          <mxGeometry relative="1" as="geometry">
            <Array as="points">
              <mxPoint x="1272" y="1720" />
              <mxPoint x="1202" y="1720" />
            </Array>
          </mxGeometry>
        </mxCell>
        <mxCell id="6pIU_dXwWz2zI7MfIqAC-41" value="Testing data" style="rounded=0;whiteSpace=wrap;html=1;" vertex="1" parent="1">
          <mxGeometry x="1212" y="1640" width="120" height="60" as="geometry" />
        </mxCell>
        <mxCell id="6pIU_dXwWz2zI7MfIqAC-42" style="edgeStyle=orthogonalEdgeStyle;rounded=0;orthogonalLoop=1;jettySize=auto;html=1;entryX=0.5;entryY=0;entryDx=0;entryDy=0;" edge="1" source="6pIU_dXwWz2zI7MfIqAC-36" target="6pIU_dXwWz2zI7MfIqAC-41" parent="1">
          <mxGeometry relative="1" as="geometry">
            <Array as="points">
              <mxPoint x="1112" y="1610" />
              <mxPoint x="1272" y="1610" />
            </Array>
          </mxGeometry>
        </mxCell>
        <mxCell id="6pIU_dXwWz2zI7MfIqAC-43" style="edgeStyle=orthogonalEdgeStyle;rounded=0;orthogonalLoop=1;jettySize=auto;html=1;entryX=0.5;entryY=0;entryDx=0;entryDy=0;" edge="1" source="6pIU_dXwWz2zI7MfIqAC-44" target="6pIU_dXwWz2zI7MfIqAC-47" parent="1">
          <mxGeometry relative="1" as="geometry" />
        </mxCell>
        <mxCell id="6pIU_dXwWz2zI7MfIqAC-44" value="Training Model" style="rounded=1;whiteSpace=wrap;html=1;" vertex="1" parent="1">
          <mxGeometry x="1142" y="1750" width="120" height="60" as="geometry" />
        </mxCell>
        <mxCell id="6pIU_dXwWz2zI7MfIqAC-45" style="edgeStyle=orthogonalEdgeStyle;rounded=0;orthogonalLoop=1;jettySize=auto;html=1;entryX=0.5;entryY=0;entryDx=0;entryDy=0;" edge="1" source="6pIU_dXwWz2zI7MfIqAC-46" target="6pIU_dXwWz2zI7MfIqAC-44" parent="1">
          <mxGeometry relative="1" as="geometry">
            <Array as="points">
              <mxPoint x="1422" y="1720" />
              <mxPoint x="1202" y="1720" />
            </Array>
          </mxGeometry>
        </mxCell>
        <mxCell id="6pIU_dXwWz2zI7MfIqAC-46" value="Testing data" style="rounded=0;whiteSpace=wrap;html=1;" vertex="1" parent="1">
          <mxGeometry x="1362" y="1640" width="120" height="60" as="geometry" />
        </mxCell>
        <mxCell id="6pIU_dXwWz2zI7MfIqAC-47" value="Selesai" style="ellipse;whiteSpace=wrap;html=1;" vertex="1" parent="1">
          <mxGeometry x="1142" y="1850" width="120" height="80" as="geometry" />
        </mxCell>
        <mxCell id="6pIU_dXwWz2zI7MfIqAC-48" style="edgeStyle=orthogonalEdgeStyle;rounded=0;orthogonalLoop=1;jettySize=auto;html=1;entryX=0.5;entryY=0;entryDx=0;entryDy=0;" edge="1" source="6pIU_dXwWz2zI7MfIqAC-49" target="6pIU_dXwWz2zI7MfIqAC-19" parent="1">
          <mxGeometry relative="1" as="geometry" />
        </mxCell>
        <mxCell id="6pIU_dXwWz2zI7MfIqAC-49" value="Handle unrelevan data" style="rounded=0;whiteSpace=wrap;html=1;" vertex="1" parent="1">
          <mxGeometry x="1052" y="771" width="120" height="60" as="geometry" />
        </mxCell>
      </root>
    </mxGraphModel>
  </diagram>
</mxfile>
